<svg viewBox="0 0 72.36 72.36" xmlns="http://www.w3.org/2000/svg"><circle cx="36.18" cy="36.18" fill="#f27b85" r="36.18"/><path d="m36.16 39.05-9.97-13.3h19.94z" fill="#f27b85"/><g fill="#fff"><path d="m28.69 29.95h14.85l-7.38 9.48z"/><path d="m36.16 37.52v15.44" stroke="#fff" stroke-miterlimit="10" stroke-width=".2"/><path d="m36.16 54a1 1 0 0 1 -1-1v-15.48a1 1 0 0 1 2.06 0v15.48a1 1 0 0 1 -1.06 1z"/><path d="m36.16 36.59a.92.92 0 0 1 .93.93v15.48a.93.93 0 0 1 -1.86 0v-15.48a.93.93 0 0 1 .93-.93m0-.2a1.14 1.14 0 0 0 -1.16 1.13v15.48a1.13 1.13 0 0 0 2.26 0v-15.48a1.13 1.13 0 0 0 -1.13-1.13z"/><path d="m41.62 53.56h-10.91" stroke="#fff" stroke-miterlimit="10" stroke-width=".2"/><path d="m30.71 54.58a1 1 0 1 1 0-2h10.91a1 1 0 1 1 0 2z"/><path d="m41.62 52.63a.93.93 0 0 1 0 1.86h-10.91a.93.93 0 0 1 0-1.86zm0-.2h-10.91a1.13 1.13 0 0 0 0 2.26h10.91a1.13 1.13 0 0 0 0-2.26z"/><path d="m36.18 34a1 1 0 0 1 -.84-1.62l10.07-14.17a1 1 0 0 1 .84-.43 1 1 0 0 1 .84 1.62l-10.09 14.15a1 1 0 0 1 -.82.45z"/><path d="m46.25 17.88a.91.91 0 0 1 .54.17.94.94 0 0 1 .22 1.3l-10.07 14.14a.94.94 0 0 1 -1.3.22.93.93 0 0 1 -.22-1.29l10.07-14.15a.92.92 0 0 1 .76-.39m0-.2a1.11 1.11 0 0 0 -.92.47l-10.07 14.15a1.12 1.12 0 0 0 .27 1.57 1.07 1.07 0 0 0 .65.21 1.11 1.11 0 0 0 .92-.47l10.07-14.15a1.12 1.12 0 0 0 -.27-1.57 1.07 1.07 0 0 0 -.65-.21z"/><path d="m36.16 41.88a1 1 0 0 1 -.83-.43l-11.33-15.8a1 1 0 0 1 -.08-1.07 1 1 0 0 1 .91-.55h22.7a1 1 0 0 1 .91.55 1 1 0 0 1 -.08 1.08l-11.36 15.8a1.05 1.05 0 0 1 -.84.42zm0-2.79 9.36-13h-18.68z"/><path d="m47.53 24.13a.9.9 0 0 1 .82.5.92.92 0 0 1 -.07 1l-11.36 15.77a1 1 0 0 1 -.76.38.91.91 0 0 1 -.75-.38l-11.33-15.8a.94.94 0 0 1 -.07-1 .93.93 0 0 1 .82-.5h22.7m-1.82 1.9h-19.07l9.52 13.28zm1.82-2.05h-22.7a1.12 1.12 0 0 0 -.91 1.78l11.32 15.8a1.14 1.14 0 0 0 .92.47 1.12 1.12 0 0 0 .92-.47l11.36-15.8a1.1 1.1 0 0 0 .09-1.17 1.11 1.11 0 0 0 -1-.61zm-20.53 2.23h18.32l-9.16 12.74z"/></g></svg>