<svg viewBox="0 0 72.36 72.36" xmlns="http://www.w3.org/2000/svg"><circle cx="36.18" cy="36.18" fill="#fbec67" r="36.18"/><g fill="#fff"><path d="m47.46 50.4h-23.77a1.15 1.15 0 1 1 0-2.29h23.77a1.15 1.15 0 0 1 0 2.29z"/><path d="m52 31.2a4 4 0 0 0 -3.6-.65c0-.06 0-.12 0-.18a2.29 2.29 0 0 0 -2.21-1.69h-21a2.29 2.29 0 0 0 -2.19 1.72 13.67 13.67 0 0 0 6.13 15.17 13.11 13.11 0 0 0 18.68-6.37h.45a5.18 5.18 0 0 0 3.6-1.34 4.71 4.71 0 0 0 1.55-3.36 4.05 4.05 0 0 0 -1.41-3.3zm-10.31 12a10.89 10.89 0 0 1 -6 1.82 10.75 10.75 0 0 1 -5.43-1.45 11.33 11.33 0 0 1 -5.09-12.57h21a11.22 11.22 0 0 1 -4.47 12.22zm8.6-7a2.83 2.83 0 0 1 -1.78.72 13.57 13.57 0 0 0 .27-4.08 1.81 1.81 0 0 1 1.78.13 1.86 1.86 0 0 1 .55 1.51 2.45 2.45 0 0 1 -.81 1.73z"/><path d="m31.63 27.39a1.13 1.13 0 0 1 -.9-.44 4 4 0 0 1 -.94-2.48 3.83 3.83 0 0 1 .54-1.91 3.64 3.64 0 0 0 .38-1 3.25 3.25 0 0 0 -.17-1.74 1.15 1.15 0 0 1 2.17-.74 5.6 5.6 0 0 1 .29 2.92 6 6 0 0 1 -.59 1.6 1.76 1.76 0 0 0 -.3.86 1.83 1.83 0 0 0 .46 1.07 1.15 1.15 0 0 1 -.2 1.61 1.09 1.09 0 0 1 -.74.25z"/><path d="m36 27.39a1.13 1.13 0 0 1 -.9-.44 3.68 3.68 0 0 1 -.41-4.39 3.65 3.65 0 0 0 .39-1 3.36 3.36 0 0 0 -.17-1.74 1.15 1.15 0 0 1 2.09-.74 5.71 5.71 0 0 1 .29 2.92 6 6 0 0 1 -.59 1.6 1.76 1.76 0 0 0 -.3.86 1.88 1.88 0 0 0 .45 1.07 1.14 1.14 0 0 1 -.19 1.61 1.11 1.11 0 0 1 -.66.25z"/><path d="m39.94 27.39a1.13 1.13 0 0 1 -.94-.39 3.68 3.68 0 0 1 -.41-4.39 3.65 3.65 0 0 0 .39-1 3.36 3.36 0 0 0 -.17-1.74 1.14 1.14 0 0 1 .72-1.45 1.13 1.13 0 0 1 1.45.71 5.28 5.28 0 0 1 -.35 4.52 1.84 1.84 0 0 0 -.29.86 1.88 1.88 0 0 0 .45 1.07 1.14 1.14 0 0 1 -.19 1.61 1.11 1.11 0 0 1 -.66.2z"/></g></svg>