<svg viewBox="0 0 72.36 72.36" xmlns="http://www.w3.org/2000/svg"><circle cx="36.18" cy="36.18" fill="#e4a8cb" r="36.18"/><g fill="none" stroke="#fff" stroke-linecap="round" stroke-linejoin="round" stroke-width="2.3"><path d="m21.76 28.41 13.74-6.83 13.71 6.83"/><path d="m23.54 43.67h25.67v5.16"/><path d="m22.1 48.83v-15.4"/></g><circle cx="27.05" cy="34.64" fill="#fff" r="1.76"/><path d="m49.17 34.73-17.27-1.68a1.62 1.62 0 0 0 -1.23.41 1.6 1.6 0 0 0 -.52 1.18v2.83h-2.81a1.6 1.6 0 0 0 0 3.19h21.66a1.61 1.61 0 0 0 1.1-.44 1.58 1.58 0 0 0 .49-1.16v-2.74a1.6 1.6 0 0 0 -1.42-1.59z" fill="#fff"/></svg>