<svg viewBox="0 0 72.36 72.36" xmlns="http://www.w3.org/2000/svg"><circle cx="36.18" cy="36.18" fill="#fcbe76" r="36.18"/><path d="m28.81 52.65a1.38 1.38 0 0 1 -1.5-1.2v-17.31a1.54 1.54 0 0 1 3 0v17.31a1.38 1.38 0 0 1 -1.5 1.2z" fill="#fff"/><path d="m43.07 51.24v-16.89" fill="none" stroke="#fff" stroke-linecap="round" stroke-miterlimit="10" stroke-width="3"/><path d="m32.34 21.51a5.6 5.6 0 0 0 -3.11-1.06h-.42-.43a5.63 5.63 0 0 0 -3.1 1.06c-2.92 2.23-2.78 7.18-.82 10.41a9.06 9.06 0 0 0 3.09 3 1.51 1.51 0 0 0 1.16.56h.2a1.53 1.53 0 0 0 1.16-.56 9.06 9.06 0 0 0 3.09-3c1.96-3.23 2.1-8.18-.82-10.41z" fill="#fff"/><g fill="none" stroke="#fff" stroke-linecap="round"><path d="m47.58 21.92v11.02h-4.51-4.35v-11.02" stroke-linejoin="round" stroke-width="2.3"/><path d="m43.15 21.92v11.02" stroke-miterlimit="10" stroke-width="2.3"/><path d="m38.72 28.7a2.29 2.29 0 0 0 2.42 2.22 2.26 2.26 0 0 0 2-2.22" stroke-linejoin="round" stroke-width="2"/></g><path d="m38.72 31.26h3.53v2.25h-3.53z" fill="#fff"/><path d="m43.15 28.7a2.29 2.29 0 0 0 2.42 2.22 2.26 2.26 0 0 0 2-2.22" fill="none" stroke="#fff" stroke-linecap="round" stroke-linejoin="round" stroke-width="2"/><path d="m43.6 31.26h3.53v2.25h-3.53z" fill="#fff"/></svg>