<svg viewBox="0 0 72.36 72.36" xmlns="http://www.w3.org/2000/svg"><circle cx="36.18" cy="36.18" fill="#74a3d7" r="36.18"/><g fill="none" stroke="#fff" stroke-width="2"><path d="m36.51 19.15v33.34" stroke-miterlimit="10"/><path d="m46.26 35.89c0 7.44-4.54 16.28-9.62 16.32s-9.95-9-9.86-16.7c.09-7.36 4.66-16.08 9.75-16.08s9.75 8.94 9.73 16.46z" stroke-linecap="round" stroke-linejoin="round"/><path d="m22.83 26.67h26.89" stroke-linecap="round" stroke-linejoin="round"/><path d="m20 35.78h32.44" stroke-linecap="round" stroke-linejoin="round"/><path d="m22.89 44.9h26.89" stroke-linecap="round" stroke-linejoin="round"/></g><path d="m36.26 20.37a15.38 15.38 0 1 1 -15.37 15.38 15.38 15.38 0 0 1 15.37-15.38m0-2a17.38 17.38 0 1 0 17.38 17.38 17.4 17.4 0 0 0 -17.38-17.38z" fill="#fff"/></svg>